<?xml version="1.0" ?><svg id="Icons" viewBox="0 0 24 24" xmlns="http://www.w3.org/2000/svg" xmlns:xlink="http://www.w3.org/1999/xlink"><defs><style>.cls-1{fill:url(#linear-gradient);}.cls-2{fill:url(#linear-gradient-2);}.cls-3{fill:#3d3c44;}.cls-4{fill:url(#linear-gradient-3);}</style><linearGradient gradientUnits="userSpaceOnUse" id="linear-gradient" x1="12" x2="12" y1="0.191" y2="8.984"><stop offset="0" stop-color="#5d5c66"/><stop offset="1" stop-color="#48474f"/></linearGradient><linearGradient gradientUnits="userSpaceOnUse" id="linear-gradient-2" x1="12" x2="12" y1="9.085" y2="23.001"><stop offset="0" stop-color="#fff650"/><stop offset="1" stop-color="#ffab17"/></linearGradient><linearGradient id="linear-gradient-3" x2="12" xlink:href="#linear-gradient" y1="12.915" y2="17.096"/></defs><path class="cls-1" d="M17,10a1,1,0,0,1-1-1V6A4,4,0,0,0,8,6V9A1,1,0,0,1,6,9V6A6,6,0,0,1,18,6V9A1,1,0,0,1,17,10Z"/><rect class="cls-2" height="14" rx="3" width="18" x="3" y="9"/><path class="cls-3" d="M12,20a1,1,0,0,1-1-1V16a1,1,0,0,1,2,0v3A1,1,0,0,1,12,20Z"/><circle class="cls-4" cx="12" cy="15" r="2"/></svg>